<svg width="46" height="60" viewBox="0 0 46 60" fill="none" xmlns="http://www.w3.org/2000/svg">
<path d="M22.9536 0.314941C10.3642 0.314941 0.12207 10.342 0.12207 22.7315C0.12207 29.1888 3.37609 35.016 6.63011 40.4233C10.5776 47.1431 15.2719 53.3903 20.7664 58.9026C21.94 60.11 23.9138 60.11 25.1407 58.9026C29.9417 54.2303 34.2093 48.928 37.7834 43.2582C41.6242 37.1685 45.7851 30.0812 45.7851 22.679C45.7317 10.3945 35.5429 0.314941 22.9536 0.314941ZM37.5167 17.9017C36.4498 16.9043 34.9561 16.3268 33.3558 16.3793C31.222 16.4843 30.1551 17.7442 27.4345 17.8492C24.8206 17.9542 23.8071 16.7468 21.2999 16.9043C18.1526 17.0618 15.6987 19.6867 15.8587 22.784C16.0188 25.8814 18.686 28.2963 21.8333 28.1388C24.3939 28.0338 25.2474 26.7739 27.8613 26.6164C30.6352 26.5114 31.8088 27.6663 33.8892 27.6138C35.3295 27.5613 36.6098 26.9839 37.57 26.0914V26.9314C37.57 31.4462 33.7825 35.1735 29.1949 35.1735H23.5404C20.393 37.7984 16.6589 39.9508 12.8714 40.6858C11.6445 40.9483 10.8977 39.4784 11.7512 38.6384C12.8181 37.5359 13.5649 36.1185 13.9383 34.5436C10.8977 33.2836 8.71056 30.3437 8.71056 26.9314V17.5867C8.71056 13.0719 12.498 9.34458 17.0857 9.34458H29.0882C33.6758 9.34458 37.4633 13.0719 37.4633 17.5867V17.9017H37.5167ZM35.4362 21.8916C35.4896 22.7315 34.7961 23.414 33.9959 23.4665C33.1424 23.519 32.4489 22.8365 32.3956 22.0491C32.3422 21.2091 33.0357 20.5266 33.8359 20.4741C34.6894 20.4216 35.3829 21.0516 35.4362 21.8916ZM23.0603 22.4165C23.1136 23.2565 22.4201 23.939 21.62 23.9915C20.7664 24.044 20.073 23.3615 20.0196 22.574C19.9663 21.7341 20.6598 21.0516 21.4599 20.9991C22.3134 20.9466 23.0603 21.5766 23.0603 22.4165Z" fill="#5A1FFC"/>
</svg>
